<svg xmlns="http://www.w3.org/2000/svg" xmlns:xlink="http://www.w3.org/1999/xlink" version="1.1" x="0px" y="0px" viewBox="0 0 90 112.5" enable-background="new 0 0 90 90" xml:space="preserve"><g><path d="M45.001,84.833c-13.73,0-24.901-11.17-24.901-24.899V30.067c0-13.73,11.17-24.9,24.901-24.9c13.73,0,24.9,11.17,24.9,24.9   v29.867C69.901,73.664,58.731,84.833,45.001,84.833z M45.001,10.167c-10.973,0-19.901,8.927-19.901,19.9v29.867   c0,10.973,8.928,19.899,19.901,19.899s19.9-8.927,19.9-19.899V30.067C64.901,19.094,55.974,10.167,45.001,10.167z M45.304,39.253   c-3.438,0-6.234-2.796-6.234-6.233v-7.467c0-3.437,2.796-6.233,6.234-6.233c3.437,0,6.234,2.796,6.234,6.233v7.467   C51.538,36.457,48.741,39.253,45.304,39.253z M45.304,24.32c-0.68,0-1.234,0.553-1.234,1.233v7.467c0,0.68,0.554,1.233,1.234,1.233   s1.234-0.553,1.234-1.233v-7.467C46.538,24.873,45.984,24.32,45.304,24.32z"/></g></svg>
